<svg width="50.000000" height="50.000000" viewBox="0 0 50 50" fill="none" xmlns="http://www.w3.org/2000/svg" xmlns:xlink="http://www.w3.org/1999/xlink">
	<desc>
			Created with Pixso.
	</desc>
	<defs>
		<clipPath id="clip25_305">
			<rect id="guarantee 1" rx="0.000000" width="49.000000" height="49.000000" transform="translate(0.500000 0.500000)" fill="white" fill-opacity="0"/>
		</clipPath>
	</defs>
	<rect id="guarantee 1" rx="0.000000" width="49.000000" height="49.000000" transform="translate(0.500000 0.500000)" fill="#FFFFFF" fill-opacity="0"/>
	<g clip-path="url(#clip25_305)">
		<path id="Vector" d="M47.32 17.71C46.66 15.67 46.94 12.6 45.22 10.24C43.5 7.85 40.49 7.17 38.79 5.93C37.11 4.7 35.55 2.03 32.73 1.11C29.98 0.21 27.17 1.43 25 1.43C22.82 1.43 20.01 0.21 17.26 1.11C14.44 2.03 12.88 4.7 11.2 5.93C9.5 7.17 6.5 7.85 4.77 10.23C3.05 12.6 3.33 15.67 2.67 17.71C2.05 19.65 0 21.98 0 25C0 28.01 2.04 30.33 2.67 32.28C3.33 34.32 3.05 37.39 4.77 39.76C6.5 42.14 9.5 42.82 11.2 44.06C12.88 45.29 14.44 47.96 17.26 48.88C20.01 49.78 22.82 48.56 25 48.56C27.17 48.56 29.99 49.78 32.73 48.88C35.55 47.96 37.11 45.29 38.79 44.06C40.49 42.82 43.5 42.14 45.22 39.76C46.94 37.39 46.66 34.32 47.32 32.28C47.94 30.34 50 28.01 50 25C50 21.98 47.95 19.66 47.32 17.71ZM43.6 31.08C42.83 33.46 43.03 36.12 42.06 37.46C41.07 38.83 38.48 39.45 36.49 40.91C34.51 42.35 33.12 44.65 31.51 45.17C29.99 45.67 27.5 44.66 25 44.66C22.47 44.66 20.01 45.67 18.48 45.17C16.87 44.65 15.48 42.36 13.5 40.91C11.52 39.46 8.91 38.82 7.93 37.46C6.96 36.13 7.16 33.44 6.39 31.08C5.64 28.76 3.9 26.75 3.9 25C3.9 23.24 5.64 21.24 6.39 18.91C7.16 16.53 6.96 13.87 7.93 12.53C8.91 11.17 11.51 10.54 13.5 9.08C15.49 7.63 16.86 5.35 18.48 4.82C20 4.32 22.49 5.33 25 5.33C27.53 5.33 29.98 4.32 31.51 4.82C33.12 5.34 34.51 7.64 36.49 9.08C38.47 10.53 41.08 11.17 42.06 12.53C43.03 13.87 42.83 16.54 43.6 18.91L43.6 18.91C44.35 21.23 46.09 23.24 46.09 25C46.09 26.75 44.35 28.75 43.6 31.08ZM33.99 18.73C34.76 19.49 34.76 20.73 33.99 21.49L24.22 31.26C23.45 32.03 22.22 32.03 21.46 31.26L16 25.81C15.23 25.04 15.23 23.81 16 23.04C16.76 22.28 18 22.28 18.76 23.04L22.84 27.12L31.23 18.73C31.99 17.96 33.23 17.96 33.99 18.73Z" fill="#244D4D" fill-opacity="1.000000" fill-rule="nonzero"/>
	</g>
</svg>
