<svg width="50.000000" height="50.000000" viewBox="0 0 50 50" fill="none" xmlns="http://www.w3.org/2000/svg" xmlns:xlink="http://www.w3.org/1999/xlink">
	<desc>
			Created with Pixso.
	</desc>
	<defs>
		<clipPath id="clip25_286">
			<rect id="shield 3" rx="0.000000" width="49.000000" height="49.000000" transform="translate(0.500000 0.500000)" fill="white" fill-opacity="0"/>
		</clipPath>
	</defs>
	<rect id="shield 3" rx="0.000000" width="49.000000" height="49.000000" transform="translate(0.500000 0.500000)" fill="#FFFFFF" fill-opacity="0"/>
	<g clip-path="url(#clip25_286)">
		<path id="Vector" d="M46.23 13.56L46.23 13.52C46.21 13.04 46.2 12.53 46.19 11.97C46.15 9.21 43.96 6.93 41.2 6.78C35.45 6.46 31 4.58 27.2 0.88L27.17 0.85C25.93 -0.29 24.06 -0.29 22.82 0.85L22.79 0.88C18.99 4.58 14.54 6.46 8.79 6.78C6.04 6.93 3.84 9.21 3.8 11.97C3.79 12.53 3.78 13.04 3.76 13.52L3.76 13.61C3.64 19.47 3.5 26.77 5.95 33.39C7.29 37.03 9.32 40.2 11.99 42.8C15.02 45.76 19 48.12 23.81 49.79C23.96 49.85 24.13 49.89 24.29 49.93C24.53 49.97 24.76 49.99 25 49.99C25.23 49.99 25.47 49.97 25.7 49.93C25.86 49.89 26.03 49.85 26.18 49.79C30.99 48.11 34.96 45.76 37.99 42.8C40.66 40.19 42.69 37.03 44.03 33.39C46.48 26.74 46.34 19.43 46.23 13.56ZM41.28 32.37C38.71 39.35 33.45 44.14 25.22 47.02C25.19 47.03 25.16 47.04 25.12 47.05C25.04 47.06 24.95 47.06 24.87 47.05C24.83 47.04 24.8 47.03 24.77 47.02C16.53 44.15 11.27 39.36 8.7 32.38C6.45 26.27 6.58 19.58 6.69 13.67L6.69 13.64C6.71 13.13 6.73 12.6 6.74 12.01C6.75 10.79 7.73 9.78 8.96 9.71C12.21 9.53 15.07 8.9 17.69 7.78C20.32 6.67 22.65 5.11 24.81 3C24.92 2.91 25.07 2.91 25.18 3C27.34 5.11 29.67 6.67 32.3 7.78C34.92 8.9 37.78 9.53 41.03 9.71C42.26 9.78 43.24 10.79 43.25 12.01C43.26 12.6 43.28 13.13 43.3 13.64C43.41 19.55 43.54 26.25 41.28 32.37Z" fill="#244D4D" fill-opacity="1.000000" fill-rule="nonzero"/>
		<path id="Vector" d="M25 12.54C18.12 12.54 12.53 18.13 12.53 25C12.53 31.87 18.12 37.46 25 37.46C31.87 37.46 37.46 31.87 37.46 25C37.46 18.13 31.87 12.54 25 12.54ZM25 34.52C19.74 34.52 15.47 30.25 15.47 25C15.47 19.74 19.74 15.47 25 15.47C30.25 15.47 34.52 19.74 34.52 25C34.52 30.25 30.25 34.52 25 34.52Z" fill="#244D4D" fill-opacity="1.000000" fill-rule="nonzero"/>
		<path id="Vector" d="M28.58 21.13L22.79 26.91L21.22 25.34C20.65 24.77 19.72 24.77 19.14 25.34C18.57 25.92 18.57 26.85 19.14 27.42L21.75 30.03C22.04 30.31 22.41 30.46 22.79 30.46C23.16 30.46 23.54 30.31 23.83 30.03L30.65 23.2C31.22 22.63 31.22 21.7 30.65 21.13C30.08 20.55 29.15 20.55 28.58 21.13Z" fill="#244D4D" fill-opacity="1.000000" fill-rule="nonzero"/>
	</g>
</svg>
