<svg width="50.000000" height="50.000000" viewBox="0 0 50 50" fill="none" xmlns="http://www.w3.org/2000/svg" xmlns:xlink="http://www.w3.org/1999/xlink">
	<desc>
			Created with Pixso.
	</desc>
	<defs>
		<clipPath id="clip25_297">
			<rect id="free-delivery 1" rx="0.000000" width="49.000000" height="49.000000" transform="translate(0.500000 0.500000)" fill="white" fill-opacity="0"/>
		</clipPath>
	</defs>
	<rect id="free-delivery 1" rx="0.000000" width="49.000000" height="49.000000" transform="translate(0.500000 0.500000)" fill="#FFFFFF" fill-opacity="0"/>
	<g clip-path="url(#clip25_297)">
		<path id="Vector" d="M40.68 20.41L35.87 20.41L35.87 17.16C35.87 16.36 35.22 15.7 34.41 15.7L1.46 15.7C0.65 15.7 0 16.36 0 17.16L0 43.84C0 44.65 0.65 45.3 1.46 45.3L6.45 45.3C8.04 51.54 16.85 51.54 18.44 45.3L31.55 45.3C33.15 51.54 41.95 51.54 43.54 45.3L48.53 45.3C49.34 45.3 50 44.65 50 43.84L50 29.72C50 24.58 45.82 20.41 40.68 20.41ZM12.44 47.08C10.66 47.08 9.2 45.63 9.2 43.84C9.38 39.54 15.51 39.54 15.68 43.84C15.68 45.63 14.23 47.08 12.44 47.08ZM32.94 39.73C32.28 40.47 31.8 41.38 31.55 42.37L18.44 42.37C16.84 36.13 8.04 36.14 6.45 42.37L2.92 42.37L2.92 18.63L32.94 18.63L32.94 39.73ZM37.55 47.08C35.76 47.08 34.31 45.63 34.31 43.84C34.48 39.54 40.61 39.54 40.79 43.84C40.79 45.63 39.33 47.08 37.55 47.08ZM47.07 42.37L43.54 42.37C42.88 39.67 40.45 37.67 37.55 37.67L35.87 37.67L35.87 23.34L39.22 23.34L39.22 32.86C39.22 33.66 39.88 34.32 40.68 34.32L47.07 34.32L47.07 42.37ZM47.07 31.39L42.15 31.39L42.15 23.51C44.96 24.17 47.07 26.7 47.07 29.72L47.07 31.39Z" fill="#244D4D" fill-opacity="1.000000" fill-rule="nonzero"/>
		<path id="Vector" d="M35.98 12.35L39.9 12.35C41.84 12.28 41.84 9.5 39.9 9.42L37.71 9.42L38 7.65L39.9 7.65C41.84 7.57 41.84 4.79 39.9 4.72L38.49 4.72L38.79 2.94L41.47 2.94C43.41 2.86 43.41 0.09 41.47 0.01L37.55 0.01C36.83 0.01 36.22 0.53 36.1 1.23L34.53 10.65C34.38 11.54 35.07 12.35 35.98 12.35Z" fill="#222222" fill-opacity="1.000000" fill-rule="nonzero"/>
		<path id="Vector" d="M26.56 12.35L30.49 12.35C32.43 12.28 32.43 9.5 30.49 9.42L28.29 9.42L28.59 7.65L30.49 7.65C32.43 7.57 32.43 4.79 30.49 4.72L29.08 4.72L29.37 2.94L32.06 2.94C34 2.86 34 0.09 32.06 0.01L28.13 0.01C27.42 0.01 26.81 0.53 26.69 1.23L25.12 10.65C24.97 11.54 25.66 12.35 26.56 12.35Z" fill="#244D4D" fill-opacity="1.000000" fill-rule="nonzero"/>
		<path id="Vector" d="M15.34 12.33C16.48 12.52 16.96 11.54 17.03 11.13L17.27 9.69L20.15 12.03C20.82 12.57 21.73 12.4 22.21 11.81C22.72 11.18 22.62 10.26 22 9.75L20.37 8.43L21.73 8.43C22.44 8.43 23.05 7.91 23.17 7.21L24.09 1.72C24.24 0.82 23.55 0.01 22.64 0.01L17.15 0.01C16.43 0.01 15.82 0.53 15.71 1.23L14.8 6.69C14.8 6.69 14.8 6.69 14.8 6.69C14.79 6.7 14.79 6.7 14.79 6.71C14.79 6.72 14.79 6.74 14.78 6.76L14.14 10.65C14 11.45 14.54 12.2 15.34 12.33ZM18.39 2.94L20.91 2.94L20.49 5.5L17.96 5.5L18.39 2.94Z" fill="#244D4D" fill-opacity="1.000000" fill-rule="nonzero"/>
		<path id="Vector" d="M6.71 12.33C7.85 12.52 8.33 11.54 8.4 11.13L8.84 8.43L10.87 8.43C12.82 8.35 12.82 5.58 10.87 5.5L9.33 5.5L9.76 2.94L12.44 2.94C14.39 2.86 14.38 0.09 12.44 0.01L8.52 0.01C7.8 0.01 7.19 0.53 7.08 1.23L5.5 10.65C5.37 11.45 5.91 12.2 6.71 12.33Z" fill="#244D4D" fill-opacity="1.000000" fill-rule="nonzero"/>
	</g>
</svg>
